<?xml version="1.0" encoding="UTF-8" standalone="no"?>
<!-- Created with Inkscape (http://www.inkscape.org/) -->

<svg
   xmlns:dc="http://purl.org/dc/elements/1.1/"
   xmlns:cc="http://creativecommons.org/ns#"
   xmlns:rdf="http://www.w3.org/1999/02/22-rdf-syntax-ns#"
   xmlns:svg="http://www.w3.org/2000/svg"
   xmlns="http://www.w3.org/2000/svg"
   xmlns:sodipodi="http://sodipodi.sourceforge.net/DTD/sodipodi-0.dtd"
   xmlns:inkscape="http://www.inkscape.org/namespaces/inkscape"
   width="744.09448819"
   height="1052.3622047"
   id="svg9841"
   version="1.1"
   inkscape:version="0.48.3.1 r9886"
   sodipodi:docname="New document 41">
  <defs
     id="defs9843">
    <marker
       inkscape:stockid="Arrow2Lend"
       orient="auto"
       refY="0"
       refX="0"
       id="Arrow2Lend"
       style="overflow:visible">
      <path
         inkscape:connector-curvature="0"
         id="path3842"
         style="fill-rule:evenodd;stroke-width:0.625;stroke-linejoin:round"
         d="M 8.7185878,4.0337352 -2.2072895,0.01601326 8.7185884,-4.0017078 c -1.7454984,2.3720609 -1.7354408,5.6174519 -6e-7,8.035443 z"
         transform="matrix(-1.1,0,0,-1.1,-1.1,0)" />
    </marker>
    <marker
       inkscape:stockid="Arrow2Lend"
       orient="auto"
       refY="0"
       refX="0"
       id="Arrow2Lend-8"
       style="overflow:visible">
      <path
         inkscape:connector-curvature="0"
         id="path3842-9"
         style="fill-rule:evenodd;stroke-width:0.625;stroke-linejoin:round"
         d="M 8.7185878,4.0337352 -2.2072895,0.01601326 8.7185884,-4.0017078 c -1.7454984,2.3720609 -1.7354408,5.6174519 -6e-7,8.035443 z"
         transform="matrix(-1.1,0,0,-1.1,-1.1,0)" />
    </marker>
    <marker
       inkscape:stockid="Arrow2Lend"
       orient="auto"
       refY="0"
       refX="0"
       id="marker10861"
       style="overflow:visible">
      <path
         inkscape:connector-curvature="0"
         id="path10863"
         style="fill-rule:evenodd;stroke-width:0.625;stroke-linejoin:round"
         d="M 8.7185878,4.0337352 -2.2072895,0.01601326 8.7185884,-4.0017078 c -1.7454984,2.3720609 -1.7354408,5.6174519 -6e-7,8.035443 z"
         transform="matrix(-1.1,0,0,-1.1,-1.1,0)" />
    </marker>
    <marker
       inkscape:stockid="Arrow2Lend"
       orient="auto"
       refY="0"
       refX="0"
       id="Arrow2Lend-1"
       style="overflow:visible">
      <path
         inkscape:connector-curvature="0"
         id="path3842-3"
         style="fill-rule:evenodd;stroke-width:0.625;stroke-linejoin:round"
         d="M 8.7185878,4.0337352 -2.2072895,0.01601326 8.7185884,-4.0017078 c -1.7454984,2.3720609 -1.7354408,5.6174519 -6e-7,8.035443 z"
         transform="matrix(-1.1,0,0,-1.1,-1.1,0)" />
    </marker>
  </defs>
  <sodipodi:namedview
     id="base"
     pagecolor="#ffffff"
     bordercolor="#666666"
     borderopacity="1.0"
     inkscape:pageopacity="0.0"
     inkscape:pageshadow="2"
     inkscape:zoom="0.98994949"
     inkscape:cx="390.40898"
     inkscape:cy="787.30997"
     inkscape:document-units="px"
     inkscape:current-layer="layer1"
     showgrid="false"
     inkscape:window-width="1215"
     inkscape:window-height="776"
     inkscape:window-x="65"
     inkscape:window-y="24"
     inkscape:window-maximized="1" />
  <metadata
     id="metadata9846">
    <rdf:RDF>
      <cc:Work
         rdf:about="">
        <dc:format>image/svg+xml</dc:format>
        <dc:type
           rdf:resource="http://purl.org/dc/dcmitype/StillImage" />
        <dc:title></dc:title>
      </cc:Work>
    </rdf:RDF>
  </metadata>
  <g
     inkscape:label="Layer 1"
     inkscape:groupmode="layer"
     id="layer1">
    <g
       id="g10832"
       transform="translate(-75.714286,-42.857143)">
      <rect
         y="207.4265"
         x="157.69557"
         height="235.22891"
         width="290.70038"
         id="rect3757"
         style="fill:#f9f9f9;stroke:#000000;stroke-width:0.6448409;stroke-opacity:1" />
      <g
         id="g10746">
        <path
           style="fill:none;stroke:#c40000;stroke-width:1.44500005;stroke-linecap:butt;stroke-linejoin:miter;stroke-miterlimit:4;stroke-opacity:1;stroke-dasharray:none"
           d="m 263.18734,207.44928 c 100.56591,235.20614 39.85843,235.20614 39.85843,235.20614"
           id="path3787"
           inkscape:connector-curvature="0" />
        <g
           id="g10741">
          <path
             transform="matrix(0.60704374,0,0,0.68482997,85.357373,78.926147)"
             d="m 260.61935,358.38739 c 0,3.90524 -2.2613,7.07107 -5.05076,7.07107 -2.78946,0 -5.05076,-3.16583 -5.05076,-7.07107 0,-3.90524 2.2613,-7.07107 5.05076,-7.07107 2.78946,0 5.05076,3.16583 5.05076,7.07107 z"
             sodipodi:ry="7.0710678"
             sodipodi:rx="5.0507627"
             sodipodi:cy="358.38739"
             sodipodi:cx="255.56859"
             id="path3791"
             style="fill:#000000;stroke:#000000;stroke-opacity:1"
             sodipodi:type="arc" />
          <path
             d="m 260.61935,358.38739 c 0,3.90524 -2.2613,7.07107 -5.05076,7.07107 -2.78946,0 -5.05076,-3.16583 -5.05076,-7.07107 0,-3.90524 2.2613,-7.07107 5.05076,-7.07107 2.78946,0 5.05076,3.16583 5.05076,7.07107 z"
             sodipodi:ry="7.0710678"
             sodipodi:rx="5.0507627"
             sodipodi:cy="358.38739"
             sodipodi:cx="255.56859"
             id="path3791-9"
             style="fill:#ffffff;stroke:#000000;stroke-opacity:1"
             sodipodi:type="arc"
             transform="matrix(0.60704374,0,0,0.68482997,209.83835,57.480878)" />
          <path
             inkscape:connector-curvature="0"
             id="path4261"
             d="m 243.57315,325.04574 118.37115,-21.44277 0,0"
             style="fill:none;stroke:#0000de;stroke-width:0.64499998;stroke-linecap:butt;stroke-linejoin:miter;stroke-miterlimit:4;stroke-opacity:1;stroke-dasharray:2.58, 2.58;stroke-dashoffset:0;marker-end:url(#Arrow2Lend)" />
        </g>
        <text
           xml:space="preserve"
           style="font-size:25.79059601px;font-style:normal;font-weight:normal;line-height:125%;letter-spacing:0px;word-spacing:0px;fill:#000000;fill-opacity:1;stroke:none;font-family:Sans"
           x="208.56126"
           y="247.15497"
           id="text4447"
           sodipodi:linespacing="125%"
           transform="scale(0.94149627,1.0621391)"><tspan
             sodipodi:role="line"
             id="tspan4449"
             x="208.56126"
             y="247.15497">A</tspan></text>
        <text
           xml:space="preserve"
           style="font-size:25.79059601px;font-style:normal;font-weight:normal;line-height:125%;letter-spacing:0px;word-spacing:0px;fill:#000000;fill-opacity:1;stroke:none;font-family:Sans"
           x="400.14856"
           y="241.6284"
           id="text4451"
           sodipodi:linespacing="125%"
           transform="scale(0.94149627,1.0621391)"><tspan
             sodipodi:role="line"
             id="tspan4453"
             x="400.14856"
             y="241.6284">B</tspan></text>
        <g
           id="g10736">
          <path
             d="m 260.61935,358.38739 c 0,3.90524 -2.2613,7.07107 -5.05076,7.07107 -2.78946,0 -5.05076,-3.16583 -5.05076,-7.07107 0,-3.90524 2.2613,-7.07107 5.05076,-7.07107 2.78946,0 5.05076,3.16583 5.05076,7.07107 z"
             sodipodi:ry="7.0710678"
             sodipodi:rx="5.0507627"
             sodipodi:cy="358.38739"
             sodipodi:cx="255.56859"
             id="path3791-9-8"
             style="fill:#ffffff;stroke:#000000;stroke-opacity:1"
             sodipodi:type="arc"
             transform="matrix(0.60704374,0,0,0.68482997,86.215827,114.07061)" />
          <path
             transform="matrix(0.60704374,0,0,0.68482997,213.43012,94.427753)"
             d="m 260.61935,358.38739 c 0,3.90524 -2.2613,7.07107 -5.05076,7.07107 -2.78946,0 -5.05076,-3.16583 -5.05076,-7.07107 0,-3.90524 2.2613,-7.07107 5.05076,-7.07107 2.78946,0 5.05076,3.16583 5.05076,7.07107 z"
             sodipodi:ry="7.0710678"
             sodipodi:rx="5.0507627"
             sodipodi:cy="358.38739"
             sodipodi:cx="255.56859"
             id="path3791-3"
             style="fill:#000000;stroke:#000000;stroke-opacity:1"
             sodipodi:type="arc" />
          <path
             inkscape:connector-curvature="0"
             id="path9959"
             d="M 369.28571,340.93361 245.35714,360.21932"
             style="fill:none;stroke:#0000db;stroke-width:0.69999999;stroke-linecap:butt;stroke-linejoin:miter;stroke-miterlimit:4;stroke-opacity:1;stroke-dasharray:2.8, 2.8;stroke-dashoffset:0;marker-end:url(#Arrow2Lend)" />
        </g>
      </g>
    </g>
    <text
       xml:space="preserve"
       style="font-size:40px;font-style:normal;font-weight:normal;line-height:125%;letter-spacing:0px;word-spacing:0px;fill:#000000;fill-opacity:1;stroke:none;font-family:Sans"
       x="215.71429"
       y="321.64789"
       id="text10657"
       sodipodi:linespacing="125%"><tspan
         sodipodi:role="line"
         id="tspan10659"
         x="215.71429"
         y="321.64789" /></text>
    <text
       xml:space="preserve"
       style="font-size:40px;font-style:normal;font-weight:normal;line-height:125%;letter-spacing:0px;word-spacing:0px;fill:#000000;fill-opacity:1;stroke:none;font-family:Sans"
       x="184.28571"
       y="303.43362"
       id="text10661"
       sodipodi:linespacing="125%"><tspan
         sodipodi:role="line"
         id="tspan10663"
         x="184.28571"
         y="303.43362" /></text>
    <rect
       style="fill:#f9f9f9;stroke:#000000;stroke-width:0.6448409;stroke-opacity:1"
       id="rect3757-4"
       width="290.70038"
       height="235.22891"
       x="372.50696"
       y="164.45061" />
    <path
       style="fill:none;stroke:#c40000;stroke-width:1.44500005;stroke-linecap:butt;stroke-linejoin:miter;stroke-miterlimit:4;stroke-opacity:1;stroke-dasharray:none"
       d="m 477.99873,164.4734 c 100.56591,235.20614 39.85843,235.20614 39.85843,235.20614"
       id="path3787-2"
       inkscape:connector-curvature="0" />
    <path
       sodipodi:type="arc"
       style="fill:#000000;stroke:#000000;stroke-opacity:1"
       id="path3791-5"
       sodipodi:cx="255.56859"
       sodipodi:cy="358.38739"
       sodipodi:rx="5.0507627"
       sodipodi:ry="7.0710678"
       d="m 260.61935,358.38739 a 5.0507627,7.0710678 0 1 1 -10.10152,0 5.0507627,7.0710678 0 1 1 10.10152,0 z"
       transform="matrix(0.60704374,0,0,0.68482997,300.16876,35.950263)" />
    <path
       transform="matrix(0.60704374,0,0,0.68482997,424.64974,14.504994)"
       sodipodi:type="arc"
       style="fill:#ffffff;stroke:#000000;stroke-opacity:1"
       id="path3791-9-3"
       sodipodi:cx="255.56859"
       sodipodi:cy="358.38739"
       sodipodi:rx="5.0507627"
       sodipodi:ry="7.0710678"
       d="m 260.61935,358.38739 a 5.0507627,7.0710678 0 1 1 -10.10152,0 5.0507627,7.0710678 0 1 1 10.10152,0 z" />
    <path
       style="fill:none;stroke:#0000de;stroke-width:0.64499998;stroke-linecap:butt;stroke-linejoin:miter;stroke-miterlimit:4;stroke-opacity:1;stroke-dasharray:2.58, 2.58;stroke-dashoffset:0;marker-end:url(#Arrow2Lend)"
       d="m 458.38454,282.06986 118.37115,-21.44277 0,0"
       id="path4261-1"
       inkscape:connector-curvature="0" />
    <text
       xml:space="preserve"
       style="font-size:25.79059601px;font-style:normal;font-weight:normal;line-height:125%;letter-spacing:0px;word-spacing:0px;fill:#000000;fill-opacity:1;stroke:none;font-family:Sans"
       x="436.72086"
       y="206.69333"
       id="text4447-3"
       sodipodi:linespacing="125%"
       transform="scale(0.94149627,1.0621391)"><tspan
         sodipodi:role="line"
         id="tspan4449-8"
         x="436.72086"
         y="206.69333">A</tspan></text>
    <text
       xml:space="preserve"
       style="font-size:25.79059601px;font-style:normal;font-weight:normal;line-height:125%;letter-spacing:0px;word-spacing:0px;fill:#000000;fill-opacity:1;stroke:none;font-family:Sans"
       x="628.30817"
       y="201.16676"
       id="text4451-4"
       sodipodi:linespacing="125%"
       transform="scale(0.94149627,1.0621391)"><tspan
         sodipodi:role="line"
         id="tspan4453-4"
         x="628.30817"
         y="201.16676">B</tspan></text>
    <path
       transform="matrix(0.60704374,0,0,0.68482997,301.02722,71.094726)"
       sodipodi:type="arc"
       style="fill:#000000;stroke:#000000;stroke-opacity:1"
       id="path3791-9-8-7"
       sodipodi:cx="255.56859"
       sodipodi:cy="358.38739"
       sodipodi:rx="5.0507627"
       sodipodi:ry="7.0710678"
       d="m 260.61935,358.38739 a 5.0507627,7.0710678 0 1 1 -10.10152,0 5.0507627,7.0710678 0 1 1 10.10152,0 z" />
    <path
       sodipodi:type="arc"
       style="fill:#ffffff;stroke:#000000;stroke-opacity:1"
       id="path3791-3-7"
       sodipodi:cx="255.56859"
       sodipodi:cy="358.38739"
       sodipodi:rx="5.0507627"
       sodipodi:ry="7.0710678"
       d="m 260.61935,358.38739 a 5.0507627,7.0710678 0 1 1 -10.10152,0 5.0507627,7.0710678 0 1 1 10.10152,0 z"
       transform="matrix(0.60704374,0,0,0.68482997,425.71613,49.431564)" />
    <path
       style="fill:none;stroke:#0000de;stroke-width:0.64499998;stroke-linecap:butt;stroke-linejoin:miter;stroke-miterlimit:4;stroke-opacity:1;stroke-dasharray:2.58, 2.58;stroke-dashoffset:0;marker-end:url(#Arrow2Lend)"
       d="m 458.75565,316.8404 118.37115,-21.44277 0,0"
       id="path4261-1-3"
       inkscape:connector-curvature="0" />
    <text
       xml:space="preserve"
       style="font-size:40px;font-style:normal;font-weight:normal;line-height:125%;letter-spacing:0px;word-spacing:0px;fill:#000000;fill-opacity:1;stroke:none;font-family:Sans"
       x="165.66502"
       y="435.15897"
       id="text12292"
       sodipodi:linespacing="125%"><tspan
         sodipodi:role="line"
         id="tspan12294"
         x="165.66502"
         y="435.15897"
         style="-inkscape-font-specification:Serif;font-family:Serif;font-weight:normal;font-style:normal;font-stretch:normal;font-variant:normal;font-size:16px;text-anchor:start;text-align:start;writing-mode:lr;line-height:125%">Case 1</tspan></text>
    <text
       xml:space="preserve"
       style="font-size:40px;font-style:normal;font-weight:normal;line-height:125%;letter-spacing:0px;word-spacing:0px;fill:#000000;fill-opacity:1;stroke:none;font-family:Sans"
       x="489.7023"
       y="431.97305"
       id="text12292-9"
       sodipodi:linespacing="125%"><tspan
         sodipodi:role="line"
         id="tspan12294-5"
         x="489.7023"
         y="431.97305"
         style="font-size:16px;font-style:normal;font-variant:normal;font-weight:normal;font-stretch:normal;text-align:start;line-height:125%;writing-mode:lr-tb;text-anchor:start;font-family:Serif;-inkscape-font-specification:Serif">Case 2</tspan></text>
  </g>
</svg>
